/* XPM */
static char * blackcoin16_xpm[] = {
"16 16 88 1",
" 	c None",
".	c #765F2D",
"+	c #725C2B",
"@	c #826932",
"#	c #6D5829",
"$	c #1E180B",
"%	c #000000",
"&	c #0E0B05",
"*	c #53421F",
"=	c #3B2F16",
"-	c #1A150A",
";	c #141008",
">	c #6D582A",
",	c #090804",
"'	c #7E6530",
")	c #433519",
"!	c #8F7137",
"~	c #7F6531",
"{	c #2D2311",
"]	c #1E180C",
"^	c #3E3018",
"/	c #1F190C",
"(	c #564521",
"_	c #644F26",
":	c #665127",
"<	c #070503",
"[	c #947439",
"}	c #745A2D",
"|	c #0C0904",
"1	c #010100",
"2	c #413419",
"3	c #634E26",
"4	c #584522",
"5	c #896B35",
"6	c #654E27",
"7	c #151008",
"8	c #5B4624",
"9	c #76602E",
"0	c #413319",
"a	c #775D2E",
"b	c #544120",
"c	c #685128",
"d	c #261D0F",
"e	c #48361C",
"f	c #725C2C",
"g	c #403219",
"h	c #624D26",
"i	c #43341A",
"j	c #806332",
"k	c #43331A",
"l	c #302513",
"m	c #45331B",
"n	c #866933",
"o	c #624C26",
"p	c #574322",
"q	c #100D06",
"r	c #72572C",
"s	c #856634",
"t	c #533E21",
"u	c #0E0B06",
"v	c #4B3A1D",
"w	c #614B26",
"x	c #624C27",
"y	c #241B0E",
"z	c #644C27",
"A	c #7A5C30",
"B	c #75572E",
"C	c #554320",
"D	c #090704",
"E	c #927039",
"F	c #5A4523",
"G	c #AD8544",
"H	c #785C2F",
"I	c #876736",
"J	c #291F10",
"K	c #231A0E",
"L	c #1B150A",
"M	c #040302",
"N	c #795930",
"O	c #030201",
"P	c #674D29",
"Q	c #3E3019",
"R	c #7A5A31",
"S	c #5B4324",
"T	c #49371D",
"U	c #43321B",
"V	c #533F22",
"W	c #77592F",
"       .+@      ",
"    #$%%%%&*    ",
"   =%%%%%%%%-   ",
"  =%%%%%%%%%%;  ",
" >%%,')!~{]%%%^ ",
" /%%%(_:<[}|%%1 ",
" %%%%234%567%%%8",
"9%%%%03abcd%%%%e",
"f%%%%ghaijkl%%%m",
"n%%%%gop%qrs%%%t",
" u%%%vwx%yzA%%%B",
" C%%DEFGHIJ7%%K ",
"  L%%%%%%%%%%MN ",
"   7%%%%%%%%OP  ",
"    Q1%%%%%KR   ",
"      STUVW     "};
