/* XPM */
static char * blackcoin64_xpm[] = {
"64 64 478 2",
"  	c None",
". 	c #DEB254",
"+ 	c #DDB255",
"@ 	c #C29C49",
"# 	c #B08E43",
"$ 	c #A3833E",
"% 	c #977A39",
"& 	c #947738",
"* 	c #A2833E",
"= 	c #AC8A41",
"- 	c #BA9547",
"; 	c #D7AC53",
"> 	c #DDB154",
", 	c #DCB154",
"' 	c #DEB354",
") 	c #C19C49",
"! 	c #8A6F34",
"~ 	c #51411F",
"{ 	c #29210F",
"] 	c #080603",
"^ 	c #000000",
"/ 	c #030301",
"( 	c #201A0C",
"_ 	c #45371A",
": 	c #7B632F",
"< 	c #B38E44",
"[ 	c #DAAE52",
"} 	c #DDB354",
"| 	c #C39D4A",
"1 	c #755E2C",
"2 	c #251D0E",
"3 	c #151008",
"4 	c #604C24",
"5 	c #AF8C42",
"6 	c #DAAE53",
"7 	c #DFB353",
"8 	c #AC8B42",
"9 	c #44371A",
"0 	c #020101",
"a 	c #2B2210",
"b 	c #927438",
"c 	c #D7AB53",
"d 	c #B29044",
"e 	c #3A2F16",
"f 	c #221B0D",
"g 	c #937538",
"h 	c #D9AB53",
"i 	c #D4AA50",
"j 	c #685427",
"k 	c #030201",
"l 	c #382C15",
"m 	c #B49045",
"n 	c #AE8D43",
"o 	c #1D170B",
"p 	c #070503",
"q 	c #79602F",
"r 	c #D7AA53",
"s 	c #DCB254",
"t 	c #78612D",
"u 	c #4E3E1E",
"v 	c #CBA14F",
"w 	c #DBAF52",
"x 	c #594822",
"y 	c #2C2311",
"z 	c #C3994C",
"A 	c #D6AC51",
"B 	c #47391B",
"C 	c #221A0D",
"D 	c #BB9348",
"E 	c #493B1C",
"F 	c #BF9549",
"G 	c #DCB155",
"H 	c #574621",
"I 	c #261E0F",
"J 	c #C59C4C",
"K 	c #79622E",
"L 	c #43341A",
"M 	c #D2A553",
"N 	c #AE8D42",
"O 	c #050402",
"P 	c #765C2E",
"Q 	c #D0A84F",
"R 	c #1A150A",
"S 	c #AA8442",
"T 	c #DFB454",
"U 	c #614E25",
"V 	c #0F0C06",
"W 	c #060502",
"X 	c #010100",
"Y 	c #0E0B06",
"Z 	c #D1A252",
"` 	c #B49144",
" .	c #836932",
"..	c #D8AC53",
"+.	c #DBAF53",
"@.	c #D8AC52",
"#.	c #CCA24D",
"$.	c #BF9949",
"%.	c #3E3117",
"&.	c #4A3A1C",
"*.	c #BA9447",
"=.	c #D1A650",
"-.	c #D9AC53",
";.	c #D8AB53",
">.	c #CCA24E",
",.	c #A5823F",
"'.	c #554321",
").	c #0D0A05",
"!.	c #7D6131",
"~.	c #DFB254",
"{.	c #3C3017",
"].	c #382D15",
"^.	c #D2A74F",
"/.	c #47381B",
"(.	c #5C4923",
"_.	c #D8AA53",
":.	c #AA8642",
"<.	c #151108",
"[.	c #614C25",
"}.	c #856934",
"|.	c #1B150A",
"1.	c #100D06",
"2.	c #C79A4E",
"3.	c #DAAD53",
"4.	c #B48E45",
"5.	c #574522",
"6.	c #352A14",
"7.	c #423419",
"8.	c #695328",
"9.	c #BF974A",
"0.	c #D7A953",
"a.	c #B38D45",
"b.	c #090704",
"c.	c #7E6330",
"d.	c #CDA14F",
"e.	c #534120",
"f.	c #74592D",
"g.	c #DDB453",
"h.	c #46381A",
"i.	c #B48F45",
"j.	c #D9AD53",
"k.	c #907238",
"l.	c #D6A853",
"m.	c #856833",
"n.	c #080703",
"o.	c #BE9549",
"p.	c #D5A752",
"q.	c #564321",
"r.	c #C99A4F",
"s.	c #C7A04B",
"t.	c #6C5629",
"u.	c #5B4823",
"v.	c #2B2211",
"w.	c #B18B45",
"x.	c #D6A852",
"y.	c #D4A652",
"z.	c #D5A652",
"A.	c #D0A350",
"B.	c #8B6B36",
"C.	c #77602D",
"D.	c #46381B",
"E.	c #1E180C",
"F.	c #48391C",
"G.	c #775D2E",
"H.	c #1C160B",
"I.	c #D4A552",
"J.	c #3E2F18",
"K.	c #CEA052",
"L.	c #DEB355",
"M.	c #261F0E",
"N.	c #292010",
"O.	c #181309",
"P.	c #A98341",
"Q.	c #C69A4D",
"R.	c #A27F3F",
"S.	c #040302",
"T.	c #BD914A",
"U.	c #C39C4A",
"V.	c #46371B",
"W.	c #AF8944",
"X.	c #C3984B",
"Y.	c #B08944",
"Z.	c #D3A452",
"`.	c #B88F47",
" +	c #876735",
".+	c #8C7035",
"++	c #D6A953",
"@+	c #A4803F",
"#+	c #C3974B",
"$+	c #B28A45",
"%+	c #A58140",
"&+	c #523F20",
"*+	c #DEB154",
"=+	c #544320",
"-+	c #B38B45",
";+	c #C0954B",
">+	c #D3A352",
",+	c #7C6030",
"'+	c #CE9D51",
")+	c #DCB055",
"!+	c #2B2310",
"~+	c #5B4723",
"{+	c #0C0904",
"]+	c #CFA150",
"^+	c #D3A552",
"/+	c #846633",
"(+	c #0E0B05",
"_+	c #D2A352",
":+	c #302513",
"<+	c #C3954D",
"[+	c #0A0804",
"}+	c #544120",
"|+	c #413219",
"1+	c #49391D",
"2+	c #866834",
"3+	c #A47C41",
"4+	c #BE944A",
"5+	c #8F6F38",
"6+	c #98763B",
"7+	c #070603",
"8+	c #856635",
"9+	c #AF8C43",
"0+	c #5A4723",
"a+	c #D2A451",
"b+	c #BA9148",
"c+	c #1A140A",
"d+	c #231B0E",
"e+	c #5B4724",
"f+	c #72562D",
"g+	c #A5843E",
"h+	c #1D160B",
"i+	c #45361B",
"j+	c #D2A551",
"k+	c #71592C",
"l+	c #71582C",
"m+	c #745A2D",
"n+	c #8F6F37",
"o+	c #C1964B",
"p+	c #896A35",
"q+	c #100C06",
"r+	c #674E29",
"s+	c #9A7B3A",
"t+	c #D6A752",
"u+	c #5A4623",
"v+	c #A78241",
"w+	c #564322",
"x+	c #0B0804",
"y+	c #5D4625",
"z+	c #967839",
"A+	c #7F6331",
"B+	c #7F6231",
"C+	c #876934",
"D+	c #95743A",
"E+	c #A68041",
"F+	c #CD9F50",
"G+	c #D2A252",
"H+	c #C1964C",
"I+	c #554221",
"J+	c #6C532A",
"K+	c #5A4424",
"L+	c #A2813E",
"M+	c #CDA050",
"N+	c #3D2F18",
"O+	c #B18945",
"P+	c #D1A152",
"Q+	c #70562C",
"R+	c #B88D47",
"S+	c #AA8342",
"T+	c #130F08",
"U+	c #644C28",
"V+	c #AD8942",
"W+	c #CC9E4F",
"X+	c #0C0905",
"Y+	c #A98242",
"Z+	c #CF9F52",
"`+	c #2F2412",
" @	c #564222",
".@	c #CF9F51",
"+@	c #AA8343",
"@@	c #060503",
"#@	c #6F542C",
"$@	c #BC9648",
"%@	c #594523",
"&@	c #1E170C",
"*@	c #C99B4E",
"=@	c #D0A051",
"-@	c #9C783D",
";@	c #C99B4F",
">@	c #CF9E51",
",@	c #6B522A",
"'@	c #7F5F32",
")@	c #D6A952",
"!@	c #836533",
"~@	c #D09F51",
"{@	c #CD9E50",
"]@	c #110D07",
"^@	c #9C773D",
"/@	c #CE9E51",
"(@	c #BE914B",
"_@	c #9B753D",
":@	c #241C0E",
"<@	c #45351B",
"[@	c #46361B",
"}@	c #372A16",
"|@	c #71572C",
"1@	c #332714",
"2@	c #B98C49",
"3@	c #271E0F",
"4@	c #47371C",
"5@	c #5A4524",
"6@	c #4E3B1F",
"7@	c #120E07",
"8@	c #CA974F",
"9@	c #7D6330",
"0@	c #44351B",
"a@	c #251C0F",
"b@	c #4A381D",
"c@	c #4E3B1E",
"d@	c #CD9C51",
"e@	c #5C4625",
"f@	c #45341B",
"g@	c #C9984F",
"h@	c #B58E45",
"i@	c #140F08",
"j@	c #3F3018",
"k@	c #392C17",
"l@	c #554122",
"m@	c #48371D",
"n@	c #785A30",
"o@	c #2C2211",
"p@	c #221B0E",
"q@	c #695029",
"r@	c #69502A",
"s@	c #CD9B51",
"t@	c #281E10",
"u@	c #AE8245",
"v@	c #634E26",
"w@	c #594423",
"x@	c #D0A152",
"y@	c #382B16",
"z@	c #B18746",
"A@	c #B68B48",
"B@	c #926E39",
"C@	c #CC9B51",
"D@	c #AC8344",
"E@	c #2D2212",
"F@	c #C89750",
"G@	c #B28C45",
"H@	c #685029",
"I@	c #44341B",
"J@	c #D0A052",
"K@	c #644D27",
"L@	c #523E20",
"M@	c #6C522B",
"N@	c #C4954E",
"O@	c #49371D",
"P@	c #76582F",
"Q@	c #2F2512",
"R@	c #A27E40",
"S@	c #584423",
"T@	c #B28845",
"U@	c #392B16",
"V@	c #BF914B",
"W@	c #120D07",
"X@	c #554022",
"Y@	c #836334",
"Z@	c #BA8A4A",
"`@	c #947439",
" #	c #342814",
".#	c #584422",
"+#	c #917039",
"@#	c #2B2111",
"##	c #130E07",
"$#	c #3A2C17",
"%#	c #836433",
"&#	c #CB9B50",
"*#	c #CA9A50",
"=#	c #3C2E18",
"-#	c #B88B49",
";#	c #7C5E31",
">#	c #5B4424",
",#	c #C8944F",
"'#	c #261D0E",
")#	c #181209",
"!#	c #B88E48",
"~#	c #44341A",
"{#	c #584322",
"]#	c #BF924C",
"^#	c #3D2E18",
"/#	c #664D29",
"(#	c #B48749",
"_#	c #96753A",
":#	c #644E27",
"<#	c #C1954C",
"[#	c #403219",
"}#	c #513E20",
"|#	c #CC9D50",
"1#	c #BE904B",
"2#	c #73572D",
"3#	c #5F4726",
"4#	c #C8954F",
"5#	c #322714",
"6#	c #1C150B",
"7#	c #0A0704",
"8#	c #171109",
"9#	c #1B150B",
"0#	c #291F10",
"a#	c #362915",
"b#	c #21190D",
"c#	c #18120A",
"d#	c #BF8E4C",
"e#	c #B99048",
"f#	c #8B6738",
"g#	c #8B6C36",
"h#	c #523D21",
"i#	c #C89550",
"j#	c #D3A451",
"k#	c #524020",
"l#	c #231A0E",
"m#	c #C08E4D",
"n#	c #CA9D4E",
"o#	c #AE8146",
"p#	c #C4984D",
"q#	c #A17941",
"r#	c #BB9049",
"s#	c #98713D",
"t#	c #C2954C",
"u#	c #130E08",
"v#	c #A27841",
"w#	c #C8994E",
"x#	c #261D0F",
"y#	c #AD8145",
"z#	c #49361D",
"A#	c #BF8E4D",
"B#	c #D09E50",
"C#	c #AA8243",
"D#	c #302413",
"E#	c #19130A",
"F#	c #8C6838",
"G#	c #C99550",
"H#	c #806132",
"I#	c #604726",
"J#	c #BF8F4C",
"K#	c #C7994E",
"L#	c #816233",
"M#	c #564023",
"N#	c #B28548",
"O#	c #C99450",
"P#	c #C7974F",
"Q#	c #8C6A38",
"R#	c #42321A",
"S#	c #060402",
"T#	c #2F2313",
"U#	c #785930",
"V#	c #BB8B4B",
"W#	c #C99451",
"X#	c #CB9A50",
"Y#	c #BC8E4B",
"Z#	c #886736",
"`#	c #543F21",
" $	c #20180D",
".$	c #47351C",
"+$	c #7A5B31",
"@$	c #AF8346",
"#$	c #C8964F",
"$$	c #CA984F",
"%$	c #C4924E",
"&$	c #A57B41",
"*$	c #866535",
"=$	c #74572E",
"-$	c #6A4F2A",
";$	c #5E4625",
">$	c #674D29",
",$	c #70542D",
"'$	c #7F5F33",
")$	c #9D753F",
"!$	c #BC8C4B",
"~$	c #C89551",
"                                                    . + @ # $ % & * = - ; > ,                                                   ",
"                                            ' ) ! ~ { ] ^ ^ ^ ^ ^ ^ ^ ^ / ( _ : < [                                             ",
"                                      } | 1 2 ^ ^ ^ ^ ^ ^ ^ ^ ^ ^ ^ ^ ^ ^ ^ ^ ^ ^ 3 4 5 6                                       ",
"                                  7 8 9 0 ^ ^ ^ ^ ^ ^ ^ ^ ^ ^ ^ ^ ^ ^ ^ ^ ^ ^ ^ ^ ^ ^ ^ a b c                                   ",
"                              } d e ^ ^ ^ ^ ^ ^ ^ ^ ^ ^ ^ ^ ^ ^ ^ ^ ^ ^ ^ ^ ^ ^ ^ ^ ^ ^ ^ ^ f g h                               ",
"                            i j k ^ ^ ^ ^ ^ ^ ^ ^ ^ ^ ^ ^ ^ ^ ^ ^ ^ ^ ^ ^ ^ ^ ^ ^ ^ ^ ^ ^ ^ ^ ^ l m                             ",
"                          n o ^ ^ ^ ^ ^ ^ ^ ^ ^ ^ ^ ^ ^ ^ ^ ^ ^ ^ ^ ^ ^ ^ ^ ^ ^ ^ ^ ^ ^ ^ ^ ^ ^ ^ p q r                         ",
"                      s t / ^ ^ ^ ^ ^ ^ ^ ^ ^ ^ ^ ^ ^ ^ ^ ^ ^ ^ ^ ^ ^ ^ ^ ^ ^ ^ ^ ^ ^ ^ ^ ^ ^ ^ ^ ^ ^ u v                       ",
"                    w x ^ ^ ^ ^ ^ ^ ^ ^ ^ ^ ^ ^ ^ ^ ^ ^ ^ ^ ^ ^ ^ ^ ^ ^ ^ ^ ^ ^ ^ ^ ^ ^ ^ ^ ^ ^ ^ ^ ^ ^ y z                     ",
"                  A B ^ ^ ^ ^ ^ ^ ^ ^ ^ ^ ^ ^ ^ ^ ^ ^ ^ ^ ^ ^ ^ ^ ^ ^ ^ ^ ^ ^ ^ ^ ^ ^ ^ ^ ^ ^ ^ ^ ^ ^ ^ ^ C D                   ",
"                w E ^ ^ ^ ^ ^ ^ ^ ^ ^ ^ ^ ^ ^ ^ ^ ^ ^ ^ ^ ^ ^ ^ ^ ^ ^ ^ ^ ^ ^ ^ ^ ^ ^ ^ ^ ^ ^ ^ ^ ^ ^ ^ ^ ^ o F                 ",
"              G H ^ ^ ^ ^ ^ ^ ^ ^ ^ ^ ^ ^ ^ ^ ^ ^ ^ ^ ^ ^ ^ ^ ^ ^ ^ ^ ^ ^ ^ ^ ^ ^ ^ ^ ^ ^ ^ ^ ^ ^ ^ ^ ^ ^ ^ ^ I J               ",
"            . K ^ ^ ^ ^ ^ ^ ^ ^ ^ ^ ^ ^ ^ ^ ^ ^ ^ ^ ^ ^ ^ ^ ^ ^ ^ ^ ^ ^ ^ ^ ^ ^ ^ ^ ^ ^ ^ ^ ^ ^ ^ ^ ^ ^ ^ ^ ^ ^ L M             ",
"            N O ^ ^ ^ ^ ^ ^ ^ ^ ^ ^ ^ ^ ^ ^ ^ ^ ^ ^ ^ ^ ^ ^ ^ ^ ^ ^ ^ ^ ^ ^ ^ ^ ^ ^ ^ ^ ^ ^ ^ ^ ^ ^ ^ ^ ^ ^ ^ ^ ^ P             ",
"          Q R ^ ^ ^ ^ ^ ^ ^ ^ ^ ^ ^ ^ ^ ^ ^ ^ ^ ^ ^ ^ ^ ^ ^ ^ ^ ^ ^ ^ ^ ^ ^ ^ ^ ^ ^ ^ ^ ^ ^ ^ ^ ^ ^ ^ ^ ^ ^ ^ ^ ^ O S           ",
"        T U ^ ^ ^ ^ ^ ^ ^ ^ ^ ^ ^ ^ o V W ^ ^ ^ ^ ^ ^ ^ ^ ^ X Y p ^ ^ ^ ^ ^ ^ ^ ^ ^ ^ ^ ^ ^ ^ ^ ^ ^ ^ ^ ^ ^ ^ ^ ^ ^ y Z         ",
"        ` / ^ ^ ^ ^ ^ ^ ^ ^ ^ ^ ^ X  ...+.@.#.$.%.^ &.*.J =.-.;.;.>.,.'./ ^ p ).^ ^ ^ ^ ^ ^ ^ ^ ^ ^ ^ ^ ^ ^ ^ ^ ^ ^ ^ !.        ",
"      ~.{.^ ^ ^ ^ ^ ^ ^ ^ ^ ^ ^ ^ ^ ^ ].^.6 6 6 /.^ (.-.-.-.;.;.;._.r r :.<.^ [.}.|.^ ^ ^ ^ ^ ^ ^ ^ ^ ^ ^ ^ ^ ^ ^ ^ ^ 1.2.      ",
"      N ^ ^ ^ ^ ^ ^ ^ ^ ^ ^ ^ ^ ^ ^ ^ ^ ~ 6 3.3./.^ (.-.;.4.5.6.7.8.9.0.0.a.b.^ c.d.e.^ ^ ^ ^ ^ ^ ^ ^ ^ ^ ^ ^ ^ ^ ^ ^ ^ f.      ",
"    g.h.^ ^ ^ ^ ^ ^ ^ ^ ^ ^ ^ ^ ^ ^ ^ ^ 0 i.3.j./.^ (.;.;.7.^ ^ ^ ^ b.k.l.l.m.^ n.o.p.q.^ ^ ^ ^ ^ ^ ^ ^ ^ ^ ^ ^ ^ ^ ^ ^ 3 r.    ",
"    s.k ^ ^ ^ ^ ^ ^ ^ ^ ^ ^ ^ ^ ^ ^ ^ ^ ^ t.-.-./.^ u.;.;.v.^ ^ ^ ^ ^ O w.x.y.f ^ [.z.A.|.^ ^ ^ ^ ^ ^ ^ ^ ^ ^ ^ ^ ^ ^ ^ ^ B.    ",
"    C.^ ^ ^ ^ ^ ^ ^ ^ ^ ^ ^ ^ ^ ^ ^ ^ ^ ^ {.-.-.D.^ u._.r E.^ ^ ^ ^ ^ ^ F.p.p.G.^ H.y.I.G.^ ^ ^ ^ ^ ^ ^ ^ ^ ^ ^ ^ ^ ^ ^ ^ J.K.  ",
"  L.M.^ ^ ^ ^ ^ ^ ^ ^ ^ ^ ^ ^ ^ ^ ^ ^ ^ ^ N.-.;.D.^ u.r r O.^ ^ ^ ^ ^ ^ p A.z.P.^ ^ Q.I.R.^ ^ ^ ^ ^ ^ ^ ^ ^ ^ ^ ^ ^ ^ ^ ^ S.T.  ",
"  U.^ ^ ^ ^ ^ ^ ^ ^ ^ ^ ^ ^ ^ ^ ^ ^ ^ ^ ^ o ;.;.V.^ u.r 0.1.^ ^ ^ ^ ^ ^ ^ W.y.X.^ ^ Y.Z.`.^ ^ ^ ^ ^ ^ ^ ^ ^ ^ ^ ^ ^ ^ ^ ^ ^  +  ",
"  .+^ ^ ^ ^ ^ ^ ^ ^ ^ ^ ^ ^ ^ ^ ^ ^ ^ ^ ^ o ;._.V.^ u.0.++n.^ ^ ^ ^ ^ ^ ^ @+y.#+^ ^ $+Z.%+^ ^ ^ ^ ^ ^ ^ ^ ^ ^ ^ ^ ^ ^ ^ ^ ^ &+  ",
"*+=+^ ^ ^ ^ ^ ^ ^ ^ ^ ^ ^ ^ ^ ^ ^ ^ ^ ^ ^ o _.r V.^ u.++l.S.^ ^ ^ ^ ^ ^ ^ -+I.$+^ ^ ;+>+,+^ ^ ^ ^ ^ ^ ^ ^ ^ ^ ^ ^ ^ ^ ^ ^ ^ H.'+",
")+!+^ ^ ^ ^ ^ ^ ^ ^ ^ ^ ^ ^ ^ ^ ^ ^ ^ ^ ^ o r 0.V.^ ~+l.l.k ^ ^ ^ ^ ^ ^ {+]+^+/+^ (+>+_+:+^ ^ ^ ^ ^ ^ ^ ^ ^ ^ ^ ^ ^ ^ ^ ^ ^ X <+",
"+.[+^ ^ ^ ^ ^ ^ ^ ^ ^ ^ ^ ^ ^ ^ ^ ^ ^ ^ ^ o 0.0.V.^ ~+x.p.X ^ ^ ^ ^ ^ ^ }+Z.Z.|+^ 1+_+2+^ ^ ^ ^ ^ ^ ^ ^ ^ ^ ^ ^ ^ ^ ^ ^ ^ ^ ^ 3+",
"U.^ ^ ^ ^ ^ ^ ^ ^ ^ ^ ^ ^ ^ ^ ^ ^ ^ ^ ^ ^ o 0.++V.^ ~+p.y.^ ^ ^ ^ ^ ^ O.4+Z.S 0 ^ 5+6+7+^ ^ ^ ^ ^ ^ ^ ^ ^ ^ ^ ^ ^ ^ ^ ^ ^ ^ ^ 8+",
"9+^ ^ ^ ^ ^ ^ ^ ^ ^ ^ ^ ^ ^ ^ ^ ^ ^ ^ ^ ^ o l.l.V.^ 0+p.a+^ ^ ^ ^ 0 L b+Z.`.c+^ d+e+0 ^ ^ ^ ^ ^ ^ ^ ^ ^ ^ ^ ^ ^ ^ ^ ^ ^ ^ ^ ^ f+",
"g+^ ^ ^ ^ ^ ^ ^ ^ ^ ^ ^ ^ ^ ^ ^ ^ ^ ^ ^ ^ h+l.x.i+^ 0+z.j+k+l+m+n+o+Z.Z.p+q+^ ^ ^ ^ ^ ^ ^ ^ ^ ^ ^ ^ ^ ^ ^ ^ ^ ^ ^ ^ ^ ^ ^ ^ ^ r+",
"s+^ ^ ^ ^ ^ ^ ^ ^ ^ ^ ^ ^ ^ ^ ^ ^ ^ ^ ^ ^ h+t+p.i+^ u+y.y.I.I.^+Z.Z.Z._+v+w+b.^ ^ S.x+^ ^ ^ ^ ^ ^ ^ ^ ^ ^ ^ ^ ^ ^ ^ ^ ^ ^ ^ ^ y+",
"z+^ ^ ^ ^ ^ ^ ^ ^ ^ ^ ^ ^ ^ ^ ^ ^ ^ ^ ^ ^ H.p.p.i+^ u+I.a+A+B+B+C+D+E+F+_+G+H+I+X ^ f.J+p ^ ^ ^ ^ ^ ^ ^ ^ ^ ^ ^ ^ ^ ^ ^ ^ ^ ^ K+",
"L+^ ^ ^ ^ ^ ^ ^ ^ ^ ^ ^ ^ ^ ^ ^ ^ ^ ^ ^ ^ H.p.z.i+^ u+I.M+^ ^ ^ ^ ^ ^ p N+O+P+P+Q+^ [+R+S+T+^ ^ ^ ^ ^ ^ ^ ^ ^ ^ ^ ^ ^ ^ ^ ^ ^ U+",
"V+^ ^ ^ ^ ^ ^ ^ ^ ^ ^ ^ ^ ^ ^ ^ ^ ^ ^ ^ ^ H.z.y.i+^ u+^+W+^ ^ ^ ^ ^ ^ ^ ^ X+Y+P+Z+`+^  @.@+@@@^ ^ ^ ^ ^ ^ ^ ^ ^ ^ ^ ^ ^ ^ ^ ^ #@",
"$@^ ^ ^ ^ ^ ^ ^ ^ ^ ^ ^ ^ ^ ^ ^ ^ ^ ^ ^ ^ H.y.I.i+^ %@Z.]+^ ^ ^ ^ ^ ^ ^ ^ ^ &@*@=@-@^ ).;@>@,@^ ^ ^ ^ ^ ^ ^ ^ ^ ^ ^ ^ ^ ^ ^ ^ '@",
")@W ^ ^ ^ ^ ^ ^ ^ ^ ^ ^ ^ ^ ^ ^ ^ ^ ^ ^ ^ H.I.I.i+^ %@Z.Z X ^ ^ ^ ^ ^ ^ ^ ^ ^ !@~@{@]@^ ^@/@(@O ^ ^ ^ ^ ^ ^ ^ ^ ^ ^ ^ ^ ^ ^ ^ _@",
"-.:@^ ^ ^ ^ ^ ^ ^ ^ ^ ^ ^ ^ ^ ^ ^ ^ ^ ^ ^ H.I.Z.<@^ %@_+_+S.^ ^ ^ ^ ^ ^ ^ ^ ^ [@.@.@}@^ |@'+'+1@^ ^ ^ ^ ^ ^ ^ ^ ^ ^ ^ ^ ^ ^ ^ 2@",
"-.F.^ ^ ^ ^ ^ ^ ^ ^ ^ ^ ^ ^ ^ ^ ^ ^ ^ ^ ^ H.Z.Z.<@^ %@_+G+[+^ ^ ^ ^ ^ ^ ^ ^ ^ 3@.@>@4@^ 5@'+'+6@^ ^ ^ ^ ^ ^ ^ ^ ^ ^ ^ ^ ^ ^ 7@8@",
"  9@^ ^ ^ ^ ^ ^ ^ ^ ^ ^ ^ ^ ^ ^ ^ ^ ^ ^ ^ H.Z.Z.0@^ %@G+Z (+^ ^ ^ ^ ^ ^ ^ ^ ^ a@>@/@b@^ c@d@d@e@^ ^ ^ ^ ^ ^ ^ ^ ^ ^ ^ ^ ^ ^ f@g@",
"  h@^ ^ ^ ^ ^ ^ ^ ^ ^ ^ ^ ^ ^ ^ ^ ^ ^ ^ ^ &@>+_+0@^ %@Z P+i@^ ^ ^ ^ ^ ^ ^ ^ ^ j@/@'+k@^ l@d@d@m@^ ^ ^ ^ ^ ^ ^ ^ ^ ^ ^ ^ ^ ^ n@  ",
"  ++O.^ ^ ^ ^ ^ ^ ^ ^ ^ ^ ^ ^ ^ ^ ^ ^ ^ ^ o@_+_+0@^ %@P+P+p@^ ^ ^ ^ ^ ^ ^ ^ ^ q@'+'+h+^ r@d@s@t@^ ^ ^ ^ ^ ^ ^ ^ ^ ^ ^ ^ ^ X u@  ",
"    v@^ ^ ^ ^ ^ ^ ^ ^ ^ ^ ^ ^ ^ ^ ^ ^ ^ ^ N+G+G+0@^ w@P+x@y@^ ^ ^ ^ ^ ^ ^ ^ X z@'+A@^ ^ B@C@D@^ ^ ^ ^ ^ ^ ^ ^ ^ ^ ^ ^ ^ ^ E@F@  ",
"    G@^ ^ ^ ^ ^ ^ ^ ^ ^ ^ ^ ^ ^ ^ ^ ^ ^ ^ H@G+Z I@^ w@J@=@K@^ ^ ^ ^ ^ ^ ^ ^ L@'+d@M@^ [+N@C@O@^ ^ ^ ^ ^ ^ ^ ^ ^ ^ ^ ^ ^ ^ P@    ",
"    t+Q@^ ^ ^ ^ ^ ^ ^ ^ ^ ^ ^ ^ ^ ^ ^ ^ ^ R@Z P+I@^ S@=@=@T@O ^ ^ ^ ^ ^ ^ U@N@d@V@W@^ X@C@Y@^ ^ ^ ^ ^ ^ ^ ^ ^ ^ ^ ^ ^ ^ b.Z@    ",
"      `@^ ^ ^ ^ ^ ^ ^ ^ ^ ^ ^ ^ ^ ^ ^ ^  #P+P+P+I@^ .#=@.@.@+#@#7@(+##$#%#&#d@*#=#^ V -#;#k ^ ^ ^ ^ ^ ^ ^ ^ ^ ^ ^ ^ ^ ^ >#,#    ",
"      y.'#^ ^ ^ ^ ^ ^ ^ ^ ^ ^ ^ ^ ^ ^ )#!#P+P+J@~#^ {#.@.@>@>@/@'+'+'+d@d@d@]#^#^ 0 /#^#^ ^ ^ ^ ^ ^ ^ ^ ^ ^ ^ ^ ^ ^ ^ p (#      ",
"        _#^ ^ ^ ^ ^ ^ ^ ^ ^ ^ ^ ^ X :#<#P+x@=@=@[#^ }#|#>@>@/@'+'+'+d@d@1#2#7@^ ^ 0 ^ ^ ^ ^ ^ ^ ^ ^ ^ ^ ^ ^ ^ ^ ^ ^ ^ 3#4#      ",
"        y.L ^ ^ ^ ^ ^ ^ ^ ^ ^ ^ ^ X 5#N.6###x+^ ^ ^ ^ ^ 7#8#9#t@0#a#a#b#0 ^ ^ ^ ^ ^ ^ ^ ^ ^ ^ ^ ^ ^ ^ ^ ^ ^ ^ ^ ^ ^ c#d#        ",
"          e#[+^ ^ ^ ^ ^ ^ ^ ^ ^ ^ ^ ^ ^ ^ ^ ^ ^ ^ ^ ^ ^ ^ ^ ^ ^ ^ ^ ^ ^ ^ ^ ^ ^ ^ ^ ^ ^ ^ ^ ^ ^ ^ ^ ^ ^ ^ ^ ^ ^ ^ ^ f#          ",
"            g#^ ^ ^ ^ ^ ^ ^ ^ ^ ^ ^ ^ ^ ^ ^ ^ ^ ^ ^ ^ ^ ^ ^ ^ ^ ^ ^ ^ ^ ^ ^ ^ ^ ^ ^ ^ ^ ^ ^ ^ ^ ^ ^ ^ ^ ^ ^ ^ ^ ^ h#i#          ",
"            j#k#^ ^ ^ ^ ^ ^ ^ ^ ^ ^ ^ ^ ^ ^ ^ ^ ^ ^ ^ ^ ^ ^ ^ ^ ^ ^ ^ ^ ^ ^ ^ ^ ^ ^ ^ ^ ^ ^ ^ ^ ^ ^ ^ ^ ^ ^ ^ ^ l#m#            ",
"              n#5#^ ^ ^ ^ ^ ^ ^ ^ ^ ^ ^ ^ ^ ^ ^ ^ ^ ^ ^ ^ ^ ^ ^ ^ ^ ^ ^ ^ ^ ^ ^ ^ ^ ^ ^ ^ ^ ^ ^ ^ ^ ^ ^ ^ ^ ^ i@o#              ",
"                p#3@^ ^ ^ ^ ^ ^ ^ ^ ^ ^ ^ ^ ^ ^ ^ ^ ^ ^ ^ ^ ^ ^ ^ ^ ^ ^ ^ ^ ^ ^ ^ ^ ^ ^ ^ ^ ^ ^ ^ ^ ^ ^ ^ ^ x+q#                ",
"                  r#p@^ ^ ^ ^ ^ ^ ^ ^ ^ ^ ^ ^ ^ ^ ^ ^ ^ ^ ^ ^ ^ ^ ^ ^ ^ ^ ^ ^ ^ ^ ^ ^ ^ ^ ^ ^ ^ ^ ^ ^ ^ ^ X+s#                  ",
"                    t#:+^ ^ ^ ^ ^ ^ ^ ^ ^ ^ ^ ^ ^ ^ ^ ^ ^ ^ ^ ^ ^ ^ ^ ^ ^ ^ ^ ^ ^ ^ ^ ^ ^ ^ ^ ^ ^ ^ ^ ^ u#v#                    ",
"                      w#[@^ ^ ^ ^ ^ ^ ^ ^ ^ ^ ^ ^ ^ ^ ^ ^ ^ ^ ^ ^ ^ ^ ^ ^ ^ ^ ^ ^ ^ ^ ^ ^ ^ ^ ^ ^ ^ ^ x#y#                      ",
"                        ~@%#] ^ ^ ^ ^ ^ ^ ^ ^ ^ ^ ^ ^ ^ ^ ^ ^ ^ ^ ^ ^ ^ ^ ^ ^ ^ ^ ^ ^ ^ ^ ^ ^ ^ ^ ^ z#A#                        ",
"                          B#C#D#^ ^ ^ ^ ^ ^ ^ ^ ^ ^ ^ ^ ^ ^ ^ ^ ^ ^ ^ ^ ^ ^ ^ ^ ^ ^ ^ ^ ^ ^ ^ ^ E#F#G#                          ",
"                              s@H#T+^ ^ ^ ^ ^ ^ ^ ^ ^ ^ ^ ^ ^ ^ ^ ^ ^ ^ ^ ^ ^ ^ ^ ^ ^ ^ ^ ^ p I#J#                              ",
"                                  K#L#6#^ ^ ^ ^ ^ ^ ^ ^ ^ ^ ^ ^ ^ ^ ^ ^ ^ ^ ^ ^ ^ ^ ^ ^ b.M#N#O#                                ",
"                                      P#Q#R#S#^ ^ ^ ^ ^ ^ ^ ^ ^ ^ ^ ^ ^ ^ ^ ^ ^ ^ X T#U#V#W#                                    ",
"                                          X#Y#Z#`# $0 ^ ^ ^ ^ ^ ^ ^ ^ ^ ^ ^ i@.$+$@$#$                                          ",
"                                                8@$$%$&$*$=$-$;$;$>$,$'$)$!$~$,#                                                "};
