/* XPM */
static char * blackcoin32_xpm[] = {
"32 32 231 2",
"  	c None",
". 	c #BB9645",
"+ 	c #866C33",
"@ 	c #695428",
"# 	c #53431F",
"$ 	c #4A3B1C",
"% 	c #5B4922",
"& 	c #6F592B",
"* 	c #957739",
"= 	c #896E34",
"- 	c #382D15",
"; 	c #020101",
"> 	c #000000",
", 	c #0E0B05",
"' 	c #554421",
") 	c #AB8741",
"! 	c #977A38",
"~ 	c #2F2612",
"{ 	c #040302",
"] 	c #594723",
"^ 	c #B58F46",
"/ 	c #6A5628",
"( 	c #010100",
"_ 	c #110D07",
": 	c #937438",
"< 	c #443619",
"[ 	c #060502",
"} 	c #7D6230",
"| 	c #826733",
"1 	c #665227",
"2 	c #0A0804",
"3 	c #9D7A3D",
"4 	c #9A7C3A",
"5 	c #070603",
"6 	c #28200F",
"7 	c #1D170B",
"8 	c #0F0C06",
"9 	c #1A140A",
"0 	c #120E07",
"a 	c #231B0E",
"b 	c #312712",
"c 	c #030201",
"d 	c #634F25",
"e 	c #DBAE53",
"f 	c #D2A850",
"g 	c #C89F4C",
"h 	c #D9AC53",
"i 	c #D5A852",
"j 	c #D8AA53",
"k 	c #A88541",
"l 	c #20190C",
"m 	c #3E3118",
"n 	c #221A0D",
"o 	c #795E2F",
"p 	c #8B7035",
"q 	c #927438",
"r 	c #D1A750",
"s 	c #C79E4C",
"t 	c #71592B",
"u 	c #9F7D3E",
"v 	c #BB9349",
"w 	c #110D06",
"x 	c #AF8A44",
"y 	c #3F3118",
"z 	c #151008",
"A 	c #392E16",
"B 	c #D1A650",
"C 	c #493A1C",
"D 	c #0E0B06",
"E 	c #CDA14F",
"F 	c #5C4823",
"G 	c #614C26",
"H 	c #BB9248",
"I 	c #7B5E30",
"J 	c #BD9949",
"K 	c #362B15",
"L 	c #D0A550",
"M 	c #C69D4C",
"N 	c #423419",
"O 	c #9F7C3D",
"P 	c #866934",
"Q 	c #3B2E17",
"R 	c #D3A452",
"S 	c #42321A",
"T 	c #886E33",
"U 	c #352A15",
"V 	c #CFA450",
"W 	c #C59C4C",
"X 	c #3C2F17",
"Y 	c #7F6331",
"Z 	c #413319",
"` 	c #C6994D",
" .	c #020201",
"..	c #0F0B06",
"+.	c #6A5528",
"@.	c #CFA350",
"#.	c #C59B4C",
"$.	c #3A2D16",
"%.	c #CA9D4E",
"&.	c #48381C",
"*.	c #685129",
"=.	c #5D4824",
"-.	c #A67E41",
";.	c #534320",
">.	c #CEA250",
",.	c #C49A4C",
"'.	c #382C16",
").	c #050402",
"!.	c #312613",
"~.	c #876934",
"{.	c #43331A",
"].	c #8B6A37",
"^.	c #C3994C",
"/.	c #D4A552",
"(.	c #D3A552",
"_.	c #C89B4E",
":.	c #5A4623",
"<.	c #070503",
"[.	c #090704",
"}.	c #826234",
"|.	c #4C3C1D",
"1.	c #352914",
"2.	c #CDA04F",
"3.	c #C3984C",
"4.	c #42331A",
"5.	c #140F08",
"6.	c #352915",
"7.	c #9C793D",
"8.	c #B38A46",
"9.	c #906F38",
"0.	c #292010",
"a.	c #856536",
"b.	c #594722",
"c.	c #342914",
"d.	c #CD9F4F",
"e.	c #C2974C",
"f.	c #3B2D17",
"g.	c #080603",
"h.	c #B28945",
"i.	c #6F552B",
"j.	c #4E3C1E",
"k.	c #B58A47",
"l.	c #926D3A",
"m.	c #745C2C",
"n.	c #CC9E4F",
"o.	c #C2964C",
"p.	c #3E3018",
"q.	c #6A5129",
"r.	c #A27D40",
"s.	c #21190D",
"t.	c #CE9D51",
"u.	c #342714",
"v.	c #987839",
"w.	c #C2954C",
"x.	c #403219",
"y.	c #614A26",
"z.	c #A67F41",
"A.	c #0D0A05",
"B.	c #CD9C51",
"C.	c #46351C",
"D.	c #22190D",
"E.	c #3D2F18",
"F.	c #CB9D4F",
"G.	c #C1944C",
"H.	c #503E20",
"I.	c #7C5F31",
"J.	c #93703A",
"K.	c #CD9B51",
"L.	c #271E10",
"M.	c #574123",
"N.	c #584522",
"O.	c #5F4925",
"P.	c #CA9C4F",
"Q.	c #C0934C",
"R.	c #775C2E",
"S.	c #1F170C",
"T.	c #C3944D",
"U.	c #503D1F",
"V.	c #554022",
"W.	c #98733C",
"X.	c #916B3B",
"Y.	c #AD8742",
"Z.	c #B18845",
"`.	c #CA9B4F",
" +	c #C0934B",
".+	c #C99A4E",
"++	c #674F28",
"@+	c #523F20",
"#+	c #6E542B",
"$+	c #C0924C",
"%+	c #856635",
"&+	c #73572E",
"*+	c #392B17",
"=+	c #765B2E",
"-+	c #8B6B37",
";+	c #7E6131",
">+	c #72582D",
",+	c #896936",
"'+	c #906E39",
")+	c #97733B",
"!+	c #896836",
"~+	c #47351C",
"{+	c #060402",
"]+	c #99733E",
"^+	c #B68F47",
"/+	c #513D21",
"(+	c #2D2212",
"_+	c #7E6231",
":+	c #1A130A",
"<+	c #AA7E43",
"[+	c #8C6C36",
"}+	c #0C0905",
"|+	c #A87E42",
"1+	c #9F7A3E",
"2+	c #241C0E",
"3+	c #533E21",
"4+	c #846534",
"5+	c #352815",
"6+	c #98703D",
"7+	c #7E5F32",
"8+	c #44331B",
"9+	c #100C06",
"0+	c #231A0E",
"a+	c #594324",
"b+	c #936E3B",
"c+	c #A87D43",
"d+	c #8C6937",
"e+	c #866535",
"f+	c #856234",
"g+	c #966F3C",
"h+	c #B68749",
"                      . + @ # $ $ % & *                         ",
"                  = - ; > > > > > > > > , ' )                   ",
"              ! ~ > > > > > > > > > > > > > { ] ^               ",
"            / ( > > > > > > > > > > > > > > > > _ :             ",
"          < > > > > > > > > > > > > > > > > > > > [ }           ",
"        $ > > > > > > > > > > > > > > > > > > > > > ( |         ",
"      1 > > > > > > > > > > > > > > > > > > > > > > > 2 3       ",
"    4 ( > > > > 5 6 7 8 > , 9 7 0 > > > > > > > > > > > a       ",
"    b > > > > > c d e f > g h i j k l m n > > > > > > > > o     ",
"  p > > > > > > > > q r > s t ( 7 u v w x y > > > > > > > z     ",
"  A > > > > > > > > $ B > s C > > D E F G H > > > > > > > > I   ",
"J ; > > > > > > > > K L > M N > > > O P Q R 8 > > > > > > > S   ",
"T > > > > > > > > > U V > W X > > > 3 Y Z `  .> > > > > > > ..  ",
"+.> > > > > > > > > U @.> #.$.> > , %.&.*.=.> > > > > > > > > -.",
";.> > > > > > > > > U >.> ,.'.).!.3 ~.{ {.( > > > > > > > > > ].",
"C > > > > > > > > > U E > ^./.(.R _.:.<._ [.> > > > > > > > > }.",
"|.> > > > > > > > > 1.2.> 3.4., 5.6.7.8.5.9.0.> > > > > > > > a.",
"b.> > > > > > > > > c.d.> e.f.> > > g.h.i.j.k.{ > > > > > > > l.",
"m.> > > > > > > > > c.n.> o.p.> > > > q.r.s.t.u.> > > > > > (   ",
"v.> > > > > > > > > c.n.> w.x.> > > > y.z.A.B.C.> > > > > > D.  ",
"  8 > > > > > > > > E.F.> G.H.> > > > I.J.s.K.L.> > > > > > M.  ",
"  N.> > > > > > > > O.P.> Q.R.> > > S.T.U.V.W.> > > > > > > X.  ",
"  Y.[ > > > > > > g.Z.`.>  +.+++@+#+$+%+2 &+D > > > > > > *+    ",
"    F > > > > > [.=+-+;+> >+,+'+)+!+~+; {+> > > > > > > ; ]+    ",
"    ^+z > > > > > > > > > > > > > > > > > > > > > > > > /+      ",
"      3 g.> > > > > > > > > > > > > > > > > > > > > > (+        ",
"        _+; > > > > > > > > > > > > > > > > > > > > :+<+        ",
"          [+}+> > > > > > > > > > > > > > > > > > (+|+          ",
"            1+2+> > > > > > > > > > > > > > > ; 3+              ",
"                4+9 > > > > > > > > > > > > 5+6+                ",
"                    7+8+9+> > > > > ( 0+a+b+                    ",
"                          c+d+e+f+g+h+                          "};
