<svg width="2173.228" height="575mm" viewBox="0 0 575 575" xmlns="http://www.w3.org/2000/svg"><defs><linearGradient id="a" x1="644.29" y1="434.17" x2="1409.37" y2="1514.28" gradientUnits="userSpaceOnUse" gradientTransform="translate(-325.295 -253.532) scale(1.29343)"><stop stop-color="#deb354"/><stop offset="1" stop-color="#c89550"/></linearGradient></defs><g transform="matrix(.26993 0 0 .26993 22.946 22.79)"><circle cx="999.372" cy="1001.652" fill="url(#a)" style="fill:url(#a);stroke:#deb354;stroke-width:1.29343;stroke-opacity:1" r="1027.385"/><path d="M1124.8 885c64.36-83.68 44.14-241.15-33.79-295-77.93-53.85-160-26.89-175.87-11.73C899.27 593.43 900 946.63 900 946.63s160.43 22.08 224.8-61.63m11.94 150.35c-60.23-26.21-236.77-19.31-236.77-19.31s-2.74 89.19 3.67 256.1c6.41 166.91 63.46 166 122.77 168.28 59.31 2.28 172.43-1.84 209.67-145.76 37.24-143.92-39.08-233.08-99.34-259.28"/><path d="M1000 0C447.72 0 0 447.72 0 1000s447.72 1000 1000 1000 1000-447.71 1000-1000S1552.29 0 1000 0m406.19 719.74c2.75 166.9-142.77 213.8-142.77 213.8s59.31-57.32 56.55-204.13c-2.76-146.81-113.1-219.32-113.1-219.32s196.57 42.75 199.32 209.65m-654.26 784.14-201.39 9.66v-18.39s123.23-12.42 123.23-228.51v-552.2c0-183-123.23-214.72-123.23-214.72v-16.54l201.39 9.64v1011.06m321.84 10.34c-87.59.7-250.13-11.26-250.13-11.26V494.22c107.14-1.39 144.61-15.87 232.88-3.46 88.27 12.41 164.15 98.63 184.84 184.84 20.69 86.21-1.37 168.28-29.67 213.1-28.3 44.82-90.34 75.88-90.34 75.88s93.8 31.72 126.92 59.3c33.12 27.58 97.24 102.76 72.41 266.22-24.83 163.46-159.33 223.44-246.92 224.12m232.78-37.22s95.5-81.39 91.3-246.41c-4.2-165.02-91.3-242.59-91.3-242.59s179.64 44.15 181.7 240.7c2.06 196.55-181.7 248.3-181.7 248.3"/></g></svg>